Coordinates
version=1
nRows=22
nColumns=24
inDegrees=yes

Units are S.I. units (second, meters, Newtons, ...)
Angles are in degrees.

endheader
time	pelvis_tilt	pelvis_list	pelvis_rotation	pelvis_tx	pelvis_ty	pelvis_tz	hip_flexion_r	hip_adduction_r	hip_rotation_r	knee_angle_r	ankle_angle_r	subtalar_angle_r	mtp_angle_r	hip_flexion_l	hip_adduction_l	hip_rotation_l	knee_angle_l	ankle_angle_l	subtalar_angle_l	mtp_angle_l	lumbar_extension	lumbar_bending	lumbar_rotation
      0.97483333	     -5.64540446	      1.33340438	     -1.22680422	     -0.16513685	      1.00209568	      0.32339028	     -7.91930948	      1.35580662	      0.17512196	    -11.19010282	      9.91584999	     -4.84545875	      3.38231826	     22.20125037	      2.90152076	     -0.59980848	      4.06381551	      1.61986412	     -1.23440253	      1.49418441	     -8.21994423	      3.31939174	      8.65527384
      0.97900000	     -5.62339230	      1.39561538	     -1.23399068	     -0.15936686	      1.00138410	      0.32303762	     -8.04765291	      1.22901072	      0.01885917	    -11.68994479	      9.98751812	     -4.54786561	      3.64230970	     22.15282344	      3.06451307	     -0.46319292	      4.12629406	      1.62969794	     -1.20571445	      1.51202880	     -8.20963009	      3.25381887	      8.60138326
      0.98316667	     -5.65328067	      1.43547310	     -1.25005720	     -0.15361363	      1.00061619	      0.32268594	     -8.08667347	      1.12432480	     -0.12201989	    -12.25328727	     10.02884357	     -4.24760570	      4.03523527	     22.16940214	      3.19891163	     -0.28149339	      4.09569015	      1.58036869	     -1.29985714	      1.54271980	     -8.12991885	      3.23253252	      8.53883528
      0.98733333	     -5.63013984	      1.52096911	     -1.24406496	     -0.14779404	      0.99994026	      0.32232174	     -8.18905724	      0.97273270	     -0.27511964	    -12.80869031	     10.05093133	     -3.99128462	      4.41257148	     22.12164046	      3.38585324	     -0.04481840	      4.00489167	      1.49843183	     -1.44297842	      1.57813654	     -8.11413635	      3.14065698	      8.46666766
      0.99150000	     -5.62663878	      1.60551131	     -1.24542770	     -0.14197381	      0.99925918	      0.32198701	     -8.25556643	      0.82575082	     -0.37729563	    -13.37564483	      9.91661431	     -3.91597993	      9.28637469	     22.10114335	      3.56523187	      0.23087037	      3.83216225	      1.35385888	     -1.72998983	      2.12740608	     -8.07428005	      3.03923718	      8.37811866
      0.99566667	     -5.59850967	      1.70355689	     -1.21450290	     -0.13611881	      0.99861715	      0.32158222	     -8.32173254	      0.65856968	     -0.57701547	    -14.01734754	      9.91500411	     -3.61296639	      9.34296113	     22.06291977	      3.77042649	      0.51566785	      3.57999762	      1.18602090	     -1.93480719	      2.13123060	     -8.05590992	      2.93204777	      8.30854038
      0.99983333	     -5.56231055	      1.81708008	     -1.18710109	     -0.13025487	      0.99800906	      0.32118692	     -8.37767038	      0.47407193	     -0.75182223	    -14.69284729	      9.87479690	     -3.34505745	      9.45174859	     22.01051512	      3.98860484	      0.85551461	      3.28365589	      0.93396970	     -2.32860197	      2.14544134	     -8.04962564	      2.80719487	      8.20706072
      1.00400000	     -5.52924951	      1.93324232	     -1.15785323	     -0.12436778	      0.99740978	      0.32078832	     -8.40871963	      0.28615367	     -0.92817870	    -15.41001577	      9.79707270	     -3.09698415	      9.60753011	     21.96117172	      4.20824884	      1.23090593	      2.93396300	      0.62789047	     -2.79765952	      2.17025363	     -8.03268185	      2.67262483	      8.10378694
      1.00816667	     -5.50614477	      2.05484756	     -1.12068888	     -0.11847411	      0.99681821	      0.32038358	     -8.40822475	      0.09311536	     -1.10092484	    -16.16435243	      9.68065503	     -2.86663109	      9.81464071	     21.92814327	      4.43448649	      1.63075263	      2.52728194	      0.26508657	     -3.34200317	      2.20422128	     -8.00303709	      2.53605488	      7.99338946
      1.01233333	     -5.46781681	      2.17928312	     -1.07210757	     -0.11256852	      0.99625767	      0.31995913	     -8.40608971	     -0.10358654	     -1.28265806	    -16.95114262	      9.51911957	     -2.64768552	     10.09515720	     21.88182649	      4.66807291	      2.05727977	      2.07586766	     -0.14397860	     -3.96224168	      2.25116612	     -7.99192848	      2.39299368	      7.87443303
      1.01650000	     -5.42823734	      2.32046852	     -1.02507392	     -0.10665139	      0.99572763	      0.31953182	     -8.37654732	     -0.32138592	     -1.46812694	    -17.78949710	      9.32061047	     -2.43825536	     10.41803420	     21.83535314	      4.91774836	      2.47854433	      1.58860384	     -0.60498961	     -4.61594332	      2.30115836	     -7.97862094	      2.23063605	      7.75260981
      1.02066667	     -5.28874424	      2.44782460	     -0.92608690	     -0.10067653	      0.99537458	      0.31908007	     -8.49361282	     -0.50586957	     -1.65143688	    -18.53340180	      8.92244450	     -2.45701378	     12.22445737	     21.65818921	      5.17172819	      3.04552825	      1.11743575	     -1.18233938	     -5.47247040	      2.58791703	     -8.09797438	      2.06477775	      7.65560547
      1.02483333	     -5.28181681	      2.60799189	     -0.88395348	     -0.09477388	      0.99482599	      0.31861803	     -8.34919307	     -0.76056231	     -1.87256483	    -19.51749769	      8.67434025	     -2.15311161	     13.41925099	     21.66384683	      5.44137954	      3.44526341	      0.54413376	     -1.69853528	     -6.21653034	      2.73469436	     -8.04486022	      1.88144046	      7.51502482
      1.02900000	     -5.30661509	      2.75088194	     -0.86065722	     -0.08889884	      0.99427061	      0.31821214	     -8.13658320	     -0.99125685	     -2.02085010	    -20.55118536	      8.34771601	     -1.96372362	     13.73024189	     21.73695939	      5.68247433	      3.70413742	     -0.11666881	     -2.11299736	     -6.74415254	      2.75768892	     -7.94755219	      1.72718461	      7.37836455
      1.03316667	     -5.24228867	      2.89959415	     -0.79571570	     -0.08297054	      0.99387429	      0.31776424	     -8.04198247	     -1.22147548	     -2.19650111	    -21.51577791	      7.79389977	     -1.96490763	     19.12186312	     21.68138412	      5.94692175	      4.13081680	     -0.73074084	     -2.64895443	     -7.54284988	      3.14729833	     -7.97128348	      1.54841587	      7.24459955
      1.03733333	     -5.20757517	      3.07375573	     -0.75469488	     -0.07707374	      0.99345543	      0.31731376	     -7.84234168	     -1.49796760	     -2.39922575	    -22.62956113	      7.36162469	     -1.74882119	     19.20541337	     21.67051106	      6.22915729	      4.44886457	     -1.37862869	     -3.16025045	     -8.20832236	      3.13069793	     -7.95540400	      1.34573787	      7.13450834
      1.04150000	     -5.15339219	      3.23522127	     -0.70322976	     -0.07119299	      0.99308962	      0.31686576	     -7.64980746	     -1.75571720	     -2.57667996	    -23.74947919	      6.81782923	     -1.61260994	     19.38811791	     21.64331390	      6.50394675	      4.80783587	     -2.04952010	     -3.67080921	     -8.99778245	      3.10674449	     -7.97291527	      1.14961771	      7.01007356
      1.04566667	     -5.12443671	      3.39989052	     -0.66496974	     -0.06533650	      0.99271701	      0.31642144	     -7.38370702	     -2.02501271	     -2.74214564	    -24.94148489	      6.20727921	     -1.49375364	     19.67559551	     21.64351502	      6.77704031	      5.13930125	     -2.72897038	     -4.14130728	     -9.73527642	      3.07327289	     -7.96060318	      0.95651847	      6.89633015
      1.04983333	     -5.07656171	      3.58241374	     -0.63627554	     -0.05949364	      0.99239613	      0.31598400	     -7.09742675	     -2.32324248	     -2.91382824	    -26.19483035	      5.53755062	     -1.38244593	     20.04407801	     21.62148276	      7.06598030	      5.43482112	     -3.41091733	     -4.58467426	    -10.44067392	      3.02872505	     -7.97167856	      0.74190316	      6.78171340
      1.05400000	     -4.99981252	      3.76475746	     -0.61944299	     -0.05363837	      0.99215576	      0.31555345	     -6.81950538	     -2.63057182	     -3.07909446	    -27.45228306	      4.65185904	     -1.38223940	     25.69565717	     21.56035199	      7.35146660	      5.69829585	     -4.08873830	     -4.92311350	    -11.05960834	      2.40755857	     -8.01484745	      0.53450365	      6.66042596
      1.05816667	     -4.96443215	      3.96145007	     -0.61547310	     -0.04786078	      0.99186371	      0.31514575	     -6.43395575	     -2.95880867	     -3.22039930	    -28.82656468	      3.85711228	     -1.30023693	     25.78753406	     21.56675341	      7.64691073	      5.90548696	     -4.81529198	     -5.19394458	    -11.63696340	      2.39123351	     -8.02082773	      0.29214602	      6.58861247
      1.06233333	     -4.91731405	      4.16807463	     -0.62579473	     -0.04208267	      0.99161550	      0.31474740	     -6.02311613	     -3.30918388	     -3.36241203	    -30.24896370	      2.95526133	     -1.25902065	     25.93051070	     21.54270862	      7.94697578	      6.08521926	     -5.50742610	     -5.42195913	    -12.15972062	      2.36412767	     -8.02814496	      0.05415242	      6.49890579
